<svg width="16" height="5" viewBox="0 0 16 5" fill="none" xmlns="http://www.w3.org/2000/svg">
<path d="M4 2.28418C4 1.18418 3.1 0.28418 2 0.28418C0.9 0.28418 -1.35505e-07 1.18418 -8.74228e-08 2.28418C-3.93402e-08 3.38418 0.9 4.28418 2 4.28418C3.1 4.28418 4 3.38418 4 2.28418ZM6 2.28418C6 3.38418 6.9 4.28418 8 4.28418C9.1 4.28418 10 3.38418 10 2.28418C10 1.18418 9.1 0.284179 8 0.284179C6.9 0.284179 6 1.18418 6 2.28418ZM12 2.28418C12 3.38418 12.9 4.28418 14 4.28418C15.1 4.28418 16 3.38418 16 2.28418C16 1.18418 15.1 0.284179 14 0.284179C12.9 0.284179 12 1.18418 12 2.28418Z" fill="#757575"/>
</svg>
