<svg width="118" height="40" viewBox="0 0 118 40" fill="none" xmlns="http://www.w3.org/2000/svg">
<path d="M4.24805 31.8603V34.0515L16.2093 27.7909V25.5997L4.24805 31.8603Z" fill="#454545"/>
<path d="M6.29492 34.6775V36.8687L15.2659 32.1732V29.9821L6.29492 34.6775Z" fill="#454545"/>
<path d="M8.02539 37.8088V40L14.006 36.8697V34.6785L8.02539 37.8088Z" fill="#454545"/>
<path fillRule="evenodd" clipRule="evenodd" d="M3.79087 21.0316C3.51484 20.5397 3.18408 20.1427 2.99023 19.9499L4.54828 18.4005C4.87907 18.7295 5.33523 19.2872 5.71502 19.9638C6.08994 20.632 6.44488 21.5129 6.44488 22.462V28.5185L4.24142 29.6696V22.462C4.24142 22.034 4.07172 21.5321 3.79087 21.0316Z" fill="#454545"/>
<path fillRule="evenodd" clipRule="evenodd" d="M17.2907 21.0316C17.5667 20.5397 17.8974 20.1427 18.0914 19.9499L16.5332 18.4005C16.2025 18.7295 15.7464 19.2872 15.3666 19.9638C14.9917 20.632 14.6367 21.5129 14.6367 22.462L14.6368 24.1915L16.8402 23.088V22.462C16.8402 22.034 17.0099 21.5321 17.2907 21.0316Z" fill="#454545"/>
<path fillRule="evenodd" clipRule="evenodd" d="M10.5449 5.09635C5.90254 5.09635 2.20341 8.70484 2.20341 13.0786C2.20341 14.8089 2.77759 16.4105 3.75844 17.7209L1.99097 19.0292C0.740211 17.3583 0 15.3018 0 13.0786C0 7.42521 4.75659 2.90521 10.5449 2.90521C16.3331 2.90521 21.0897 7.42521 21.0897 13.0786C21.0897 15.3018 20.3495 17.3583 19.0988 19.0292L17.3313 17.7209C18.3122 16.4105 18.8864 14.8089 18.8864 13.0786C18.8864 8.70484 15.1873 5.09635 10.5449 5.09635Z" fill="#FFB000"/>
<path fillRule="evenodd" clipRule="evenodd" d="M15.8955 13.3918H5.19336V15.5829H9.28541V27.0085L11.4887 25.8814V15.5829H15.8955V13.3918Z" fill="#FFB000"/>
<path d="M29.1323 14.5521C28.3522 14.5521 27.6651 14.4291 27.0708 14.1828C26.4889 13.9365 25.9937 13.5918 25.5851 13.1486C25.189 12.7054 24.8917 12.1821 24.6937 11.5787C24.4955 10.9631 24.3965 10.2859 24.3965 9.54712C24.3965 8.80847 24.5017 8.13122 24.7122 7.51564C24.9351 6.89993 25.2446 6.37059 25.6408 5.92725C26.037 5.47167 26.5198 5.12088 27.0894 4.87462C27.6713 4.616 28.3151 4.48676 29.0208 4.48676C29.4542 4.48676 29.8875 4.5237 30.3208 4.59759C30.7541 4.67136 31.169 4.78837 31.5651 4.94851L31.1751 6.40753C30.9151 6.28434 30.6118 6.18586 30.2651 6.11197C29.9308 6.03808 29.5717 6.00114 29.1879 6.00114C28.2223 6.00114 27.4794 6.30287 26.9594 6.9061C26.4517 7.50946 26.198 8.38984 26.198 9.54712C26.198 10.0642 26.2537 10.5383 26.3651 10.9692C26.4889 11.4002 26.6746 11.7695 26.9222 12.0774C27.1823 12.3852 27.5103 12.6253 27.9065 12.7977C28.3028 12.9577 28.7856 13.0378 29.3551 13.0378C29.8132 13.0378 30.2279 12.9946 30.5994 12.9085C30.9708 12.8223 31.2618 12.73 31.4723 12.6315L31.7137 14.072C31.6147 14.1335 31.4723 14.1952 31.2865 14.2567C31.1009 14.306 30.8904 14.349 30.6551 14.3859C30.4199 14.4352 30.166 14.4722 29.8937 14.4968C29.6336 14.5337 29.3799 14.5521 29.1323 14.5521Z" fill="#454545"/>
<path d="M37.7643 13.0931C38.1729 13.0931 38.532 13.0871 38.8415 13.0747C39.1634 13.0501 39.4295 13.0132 39.64 12.9639V10.1012C39.5163 10.0396 39.312 9.99046 39.0272 9.95352C38.7549 9.90422 38.4205 9.87963 38.0244 9.87963C37.7643 9.87963 37.4858 9.89804 37.1887 9.93499C36.9039 9.97193 36.6376 10.052 36.39 10.1751C36.1548 10.2859 35.9568 10.4459 35.7957 10.6552C35.6348 10.8523 35.5543 11.117 35.5543 11.4495C35.5543 12.0651 35.7525 12.4961 36.1486 12.7422C36.5448 12.9762 37.0835 13.0931 37.7643 13.0931ZM37.6157 4.48676C38.3092 4.48676 38.891 4.57906 39.3615 4.76379C39.8444 4.93615 40.2282 5.18859 40.513 5.52097C40.8101 5.84112 41.0206 6.22898 41.1443 6.68456C41.2682 7.12777 41.3301 7.62029 41.3301 8.16199V14.1644C41.1815 14.189 40.971 14.2259 40.6986 14.2751C40.4387 14.3121 40.1415 14.349 39.8073 14.3859C39.4729 14.4229 39.1077 14.4537 38.7115 14.4784C38.3277 14.5152 37.9439 14.5337 37.5601 14.5337C37.0154 14.5337 36.5139 14.4784 36.0558 14.3675C35.5977 14.2567 35.2014 14.0843 34.8672 13.8504C34.5328 13.6042 34.2729 13.284 34.0872 12.89C33.9015 12.4961 33.8086 12.022 33.8086 11.4679C33.8086 10.9384 33.9138 10.4829 34.1243 10.1012C34.3472 9.7195 34.6443 9.4117 35.0158 9.17779C35.3872 8.94389 35.8206 8.77152 36.3158 8.66069C36.811 8.54985 37.331 8.4945 37.8758 8.4945C38.0491 8.4945 38.2287 8.50673 38.4144 8.53144C38.6 8.54367 38.7734 8.56827 38.9344 8.60521C39.1077 8.62992 39.2562 8.65451 39.3801 8.6791C39.5038 8.70381 39.5906 8.72222 39.64 8.73458V8.25429C39.64 7.97121 39.6091 7.69419 39.5472 7.42322C39.4853 7.14013 39.3739 6.89387 39.213 6.68456C39.0519 6.46289 38.8292 6.29052 38.5444 6.16733C38.272 6.0319 37.9129 5.96419 37.4673 5.96419C36.8977 5.96419 36.3962 6.00731 35.963 6.09356C35.542 6.16733 35.2263 6.24739 35.0158 6.33364L34.8115 4.91156C35.0343 4.81296 35.4058 4.72066 35.9258 4.63454C36.4458 4.53594 37.0091 4.48676 37.6157 4.48676Z" fill="#454545"/>
<path d="M51.8312 9.54802C51.8312 8.42768 51.5527 7.56571 50.9955 6.96248C50.4384 6.35913 49.6956 6.05751 48.767 6.05751C48.247 6.05751 47.8385 6.07592 47.5413 6.11287C47.2565 6.14981 47.0275 6.19293 46.8542 6.24211V12.2999C47.0646 12.4722 47.3679 12.6384 47.7642 12.7986C48.1603 12.9586 48.5937 13.0386 49.0642 13.0386C49.5593 13.0386 49.9803 12.9524 50.3269 12.78C50.686 12.5954 50.977 12.3492 51.1999 12.0414C51.4227 11.7212 51.5837 11.3518 51.6828 10.9332C51.7818 10.5023 51.8312 10.0405 51.8312 9.54802ZM53.6327 9.54802C53.6327 10.2744 53.5337 10.9455 53.3355 11.5611C53.1499 12.1768 52.8713 12.7063 52.4998 13.1495C52.1284 13.5927 51.6703 13.9374 51.1256 14.1837C50.5932 14.43 49.9803 14.553 49.287 14.553C48.7298 14.553 48.2346 14.4793 47.8013 14.3315C47.3803 14.1837 47.0646 14.0421 46.8542 13.9067V17.7482H45.127V5.02317C45.5355 4.92469 46.0432 4.82003 46.6499 4.7092C47.2689 4.58613 47.9809 4.5246 48.7856 4.5246C49.5284 4.5246 50.197 4.64149 50.7913 4.87551C51.3856 5.10942 51.8932 5.4418 52.3142 5.87278C52.7352 6.30377 53.057 6.83311 53.2799 7.46105C53.5151 8.07676 53.6327 8.77242 53.6327 9.54802Z" fill="#454545"/>
<path d="M58.7195 14.3311H56.9925V4.72731H58.7195V14.3311ZM57.8467 2.99126C57.5372 2.99126 57.271 2.89278 57.0481 2.6957C56.8377 2.48638 56.7324 2.20936 56.7324 1.86462C56.7324 1.51988 56.8377 1.24903 57.0481 1.05207C57.271 0.842757 57.5372 0.738098 57.8467 0.738098C58.1562 0.738098 58.4163 0.842757 58.6267 1.05207C58.8496 1.24903 58.961 1.51988 58.961 1.86462C58.961 2.20936 58.8496 2.48638 58.6267 2.6957C58.4163 2.89278 58.1562 2.99126 57.8467 2.99126Z" fill="#454545"/>
<path d="M64.2337 4.72743H67.8923V6.16792H64.2337L64.2117 16.8353H62.4805L62.5065 2.04947L64.2337 1.75391V4.72743Z" fill="#454545"/>
<path d="M74.2878 13.0931C74.6963 13.0931 75.0554 13.0871 75.3649 13.0747C75.6868 13.0501 75.953 13.0132 76.1635 12.9639V10.1012C76.0397 10.0396 75.8354 9.99046 75.5507 9.95352C75.2783 9.90422 74.9439 9.87963 74.5478 9.87963C74.2878 9.87963 74.0092 9.89804 73.712 9.93499C73.4273 9.97193 73.1611 10.052 72.9135 10.1751C72.6782 10.2859 72.4802 10.4459 72.3192 10.6552C72.1583 10.8523 72.0777 11.117 72.0777 11.4495C72.0777 12.0651 72.2759 12.4961 72.672 12.7422C73.0683 12.9762 73.6068 13.0931 74.2878 13.0931ZM74.1392 4.48676C74.8325 4.48676 75.4145 4.57906 75.8849 4.76379C76.3678 4.93615 76.7517 5.18859 77.0363 5.52097C77.3335 5.84112 77.544 6.22898 77.6678 6.68456C77.7916 7.12777 77.8535 7.62029 77.8535 8.16199V14.1644C77.7049 14.189 77.4944 14.2259 77.2221 14.2751C76.9621 14.3121 76.6649 14.349 76.3307 14.3859C75.9963 14.4229 75.6312 14.4537 75.2349 14.4784C74.8511 14.5152 74.4673 14.5337 74.0835 14.5337C73.5387 14.5337 73.0373 14.4784 72.5792 14.3675C72.1211 14.2567 71.7249 14.0843 71.3906 13.8504C71.0563 13.6042 70.7964 13.284 70.6106 12.89C70.4248 12.4961 70.332 12.022 70.332 11.4679C70.332 10.9384 70.4373 10.4829 70.6478 10.1012C70.8707 9.7195 71.1677 9.4117 71.5392 9.17779C71.9106 8.94389 72.344 8.77152 72.8392 8.66069C73.3344 8.54985 73.8544 8.4945 74.3992 8.4945C74.5726 8.4945 74.7521 8.50673 74.9377 8.53144C75.1235 8.54367 75.2968 8.56827 75.4578 8.60521C75.6312 8.62992 75.7796 8.65451 75.9035 8.6791C76.0273 8.70381 76.114 8.72222 76.1635 8.73458V8.25429C76.1635 7.97121 76.1325 7.69419 76.0706 7.42322C76.0088 7.14013 75.8973 6.89387 75.7364 6.68456C75.5754 6.46289 75.3526 6.29052 75.0678 6.16733C74.7953 6.0319 74.4364 5.96419 73.9906 5.96419C73.4211 5.96419 72.9197 6.00731 72.4863 6.09356C72.0654 6.16733 71.7497 6.24739 71.5392 6.33364L71.3349 4.91156C71.5578 4.81296 71.9291 4.72066 72.4492 4.63454C72.9692 4.53594 73.5326 4.48676 74.1392 4.48676Z" fill="#454545"/>
<path d="M84.5476 14.5163C83.4829 14.4917 82.7276 14.264 82.2819 13.833C81.8362 13.4022 81.6133 12.7311 81.6133 11.82V0.295439L83.3405 0V11.5429C83.3405 11.8261 83.3652 12.06 83.4148 12.2448C83.4642 12.4294 83.5447 12.5771 83.6562 12.688C83.7675 12.7988 83.9161 12.8849 84.1019 12.9466C84.2876 12.9958 84.5166 13.0389 84.789 13.0758L84.5476 14.5163Z" fill="#454545"/>
<path d="M64.2096 24.8195C64.2096 25.2997 64.2468 25.6999 64.321 26.0201C64.3953 26.3278 64.5067 26.5741 64.6553 26.7587C64.8039 26.9311 64.9895 27.0543 65.2124 27.1282C65.4353 27.202 65.6953 27.239 65.9925 27.239C66.5125 27.239 66.9272 27.1835 67.2367 27.0727C67.5587 26.9496 67.7814 26.8634 67.9053 26.8142L68.2395 28.2363C68.0662 28.3224 67.7629 28.427 67.3295 28.5502C66.8963 28.6857 66.401 28.7534 65.8439 28.7534C65.1877 28.7534 64.6429 28.6733 64.2096 28.5133C63.7887 28.3409 63.4481 28.0885 63.1882 27.7561C62.9281 27.4236 62.7425 27.0173 62.631 26.5372C62.532 26.0446 62.4824 25.4782 62.4824 24.8381V16.2685L64.2096 15.9731V24.8195Z" fill="#454545"/>
<path d="M69.8626 30.3419C69.9988 30.4036 70.1721 30.4589 70.3826 30.5082C70.6054 30.5698 70.822 30.6005 71.0325 30.6005C71.7135 30.6005 72.2458 30.4466 72.6296 30.1388C73.0136 29.8434 73.3602 29.357 73.6697 28.6798C72.8897 27.2023 72.1592 25.6387 71.4782 23.9887C70.8098 22.3266 70.2525 20.6459 69.8068 18.9468H71.664C71.8001 19.5008 71.9612 20.098 72.1468 20.7383C72.345 21.3785 72.5616 22.0372 72.7969 22.7144C73.0321 23.3916 73.2859 24.0688 73.5583 24.7459C73.8306 25.4232 74.1154 26.0757 74.4126 26.7036C74.883 25.4108 75.2916 24.1303 75.6382 22.8621C75.985 21.594 76.313 20.2888 76.6225 18.9468H78.4054C77.9597 20.7567 77.4645 22.4989 76.9197 24.1735C76.3749 25.8356 75.7868 27.3931 75.1554 28.846C74.9078 29.4001 74.6478 29.8741 74.3755 30.2682C74.1154 30.6744 73.8244 31.0068 73.5026 31.2654C73.1807 31.5239 72.8154 31.7148 72.4069 31.8379C72.0106 31.9611 71.5587 32.0226 71.0512 32.0226C70.915 32.0226 70.7726 32.0103 70.624 31.9857C70.4754 31.9734 70.3268 31.9487 70.1783 31.9118C70.042 31.8872 69.912 31.8564 69.7883 31.8195C69.6768 31.7825 69.5963 31.7518 69.5469 31.7272L69.8626 30.3419Z" fill="#454545"/>
<path d="M87.8586 23.7668C87.8586 22.6464 87.58 21.7845 87.0229 21.1812C86.4657 20.5779 85.7229 20.2763 84.7942 20.2763C84.2742 20.2763 83.8657 20.2947 83.5685 20.3316C83.2838 20.3686 83.0547 20.4117 82.8814 20.4609V26.5186C83.0919 26.691 83.3951 26.8573 83.7914 27.0173C84.1876 27.1773 84.6209 27.2574 85.0914 27.2574C85.5867 27.2574 86.0076 27.1713 86.3543 26.9989C86.7134 26.8142 87.0042 26.5679 87.2271 26.2601C87.45 25.94 87.611 25.5707 87.71 25.152C87.809 24.721 87.8586 24.2593 87.8586 23.7668ZM89.66 23.7668C89.66 24.4933 89.5609 25.1643 89.3629 25.78C89.1771 26.3956 88.8986 26.925 88.5272 27.3682C88.1557 27.8115 87.6976 28.1562 87.1528 28.4025C86.6204 28.6487 86.0076 28.7719 85.3143 28.7719C84.7572 28.7719 84.2619 28.698 83.8285 28.5502C83.4076 28.4025 83.0919 28.2609 82.8814 28.1254V31.967H81.1543V19.242C81.5628 19.1434 82.0704 19.0388 82.6771 18.9281C83.2961 18.8049 84.0081 18.7433 84.8128 18.7433C85.5557 18.7433 86.2243 18.8604 86.8186 19.0943C87.4129 19.3282 87.9205 19.6607 88.3414 20.0915C88.7624 20.5225 89.0843 21.052 89.3071 21.6798C89.5424 22.2955 89.66 22.9912 89.66 23.7668Z" fill="#454545"/>
<path d="M94.747 28.5497H93.0198V18.946H94.747V28.5497ZM93.8742 17.2099C93.5645 17.2099 93.2984 17.1115 93.0755 16.9144C92.865 16.7051 92.7598 16.428 92.7598 16.0833C92.7598 15.7386 92.865 15.4677 93.0755 15.2708C93.2984 15.0614 93.5645 14.9568 93.8742 14.9568C94.1837 14.9568 94.4436 15.0614 94.6541 15.2708C94.877 15.4677 94.9884 15.7386 94.9884 16.0833C94.9884 16.428 94.877 16.7051 94.6541 16.9144C94.4436 17.1115 94.1837 17.2099 93.8742 17.2099Z" fill="#454545"/>
<path d="M98.6445 19.2235C99.0408 19.125 99.567 19.0204 100.223 18.9095C100.879 18.7987 101.635 18.7433 102.489 18.7433C103.257 18.7433 103.894 18.8542 104.402 19.0757C104.909 19.285 105.312 19.5868 105.609 19.9807C105.918 20.3624 106.135 20.8241 106.259 21.3658C106.383 21.9077 106.445 22.5048 106.445 23.1574V28.5502H104.717V23.5267C104.717 22.9357 104.674 22.4309 104.587 22.0123C104.513 21.5937 104.383 21.2551 104.198 20.9965C104.012 20.738 103.764 20.5533 103.455 20.4424C103.145 20.3194 102.761 20.2577 102.303 20.2577C102.117 20.2577 101.926 20.2639 101.727 20.2763C101.529 20.2885 101.337 20.307 101.152 20.3316C100.978 20.344 100.817 20.3624 100.669 20.3871C100.533 20.4117 100.434 20.4301 100.372 20.4424V28.5502H98.6445V19.2235Z" fill="#454545"/>
<path d="M116.292 27.5899C116.144 27.6884 115.853 27.8176 115.419 27.9776C114.999 28.1254 114.503 28.1993 113.934 28.1993C113.352 28.1993 112.801 28.107 112.281 27.9223C111.773 27.7376 111.327 27.4544 110.943 27.0727C110.56 26.6788 110.256 26.1924 110.033 25.6137C109.811 25.035 109.699 24.3455 109.699 23.5452C109.699 22.8434 109.804 22.2031 110.015 21.6244C110.225 21.0334 110.529 20.5287 110.925 20.1101C111.333 19.6791 111.829 19.3467 112.411 19.1127C112.993 18.8664 113.649 18.7433 114.379 18.7433C115.184 18.7433 115.883 18.8049 116.478 18.9281C117.084 19.0388 117.592 19.1434 118 19.242V27.8115C118 29.289 117.616 30.3602 116.849 31.0251C116.082 31.69 114.917 32.0223 113.358 32.0223C112.751 32.0223 112.175 31.9731 111.631 31.8745C111.098 31.7761 110.634 31.6592 110.238 31.5236L110.553 30.0277C110.9 30.1632 111.321 30.2801 111.816 30.3786C112.324 30.4894 112.85 30.5449 113.395 30.5449C114.423 30.5449 115.16 30.3416 115.605 29.9354C116.063 29.5291 116.292 28.8826 116.292 27.9962V27.5899ZM116.273 20.4609C116.1 20.4117 115.865 20.3686 115.568 20.3316C115.283 20.2824 114.893 20.2577 114.398 20.2577C113.469 20.2577 112.751 20.5595 112.243 21.1627C111.748 21.766 111.501 22.5664 111.501 23.5636C111.501 24.1177 111.569 24.5918 111.705 24.9857C111.853 25.3798 112.045 25.7061 112.281 25.9646C112.528 26.2232 112.807 26.414 113.116 26.5372C113.438 26.6602 113.766 26.7219 114.101 26.7219C114.559 26.7219 114.979 26.6602 115.363 26.5372C115.747 26.4017 116.051 26.2478 116.273 26.0754V20.4609Z" fill="#454545"/>
</svg>
