<svg width="20" height="20" viewBox="0 0 20 20" fill="none" xmlns="http://www.w3.org/2000/svg">
<path d="M10.8837 10L14.8169 6.06688C14.9307 5.94901 14.9937 5.79113 14.9923 5.62726C14.9909 5.46339 14.9251 5.30663 14.8093 5.19075C14.6934 5.07487 14.5366 5.00914 14.3727 5.00771C14.2089 5.00629 14.051 5.06929 13.9331 5.18314L9.99999 9.11626L6.06686 5.18314C5.94899 5.06929 5.79111 5.00629 5.62724 5.00771C5.46337 5.00914 5.30661 5.07487 5.19073 5.19075C5.07485 5.30663 5.00912 5.46339 5.00769 5.62726C5.00627 5.79113 5.06927 5.94901 5.18311 6.06688L9.11624 10L5.18311 13.9331C5.12342 13.9908 5.07581 14.0598 5.04305 14.136C5.0103 14.2123 4.99305 14.2943 4.99233 14.3773C4.99161 14.4602 5.00743 14.5425 5.03885 14.6194C5.07028 14.6962 5.11669 14.7659 5.17537 14.8246C5.23405 14.8833 5.30383 14.9297 5.38064 14.9611C5.45745 14.9926 5.53975 15.0084 5.62274 15.0077C5.70573 15.0069 5.78774 14.9897 5.86399 14.9569C5.94024 14.9242 6.00921 14.8766 6.06686 14.8169L9.99999 10.8838L13.9331 14.8169C14.051 14.9307 14.2089 14.9937 14.3727 14.9923C14.5366 14.9909 14.6934 14.9252 14.8093 14.8093C14.9251 14.6934 14.9909 14.5366 14.9923 14.3728C14.9937 14.2089 14.9307 14.051 14.8169 13.9331L10.8837 10Z" fill="#898989"/>
</svg>
