<svg width="16" height="16" viewBox="0 0 16 16" fill="none" xmlns="http://www.w3.org/2000/svg">
<path d="M2.58605 14.0003C2.47014 14.0004 2.35684 13.966 2.26046 13.9016C2.16408 13.8373 2.08897 13.7457 2.04461 13.6387C2.00025 13.5316 1.98865 13.4137 2.01126 13.3001C2.03388 13.1864 2.08971 13.082 2.17167 13L12.9998 2.17188C13.1097 2.06198 13.2588 2.00024 13.4142 2.00024C13.5696 2.00024 13.7187 2.06198 13.8286 2.17188C13.9385 2.28178 14.0002 2.43084 14.0002 2.58626C14.0002 2.74168 13.9385 2.89074 13.8286 3.00064L3.00042 13.8288C2.94606 13.8833 2.88146 13.9265 2.81035 13.9559C2.73924 13.9853 2.66301 14.0005 2.58605 14.0003Z" fill="#7C7C7C"/>
<path d="M13.4142 14.0003C13.3372 14.0005 13.261 13.9853 13.1899 13.9559C13.1187 13.9265 13.0542 13.8833 12.9998 13.8288L2.17164 3.00064C2.06174 2.89074 2 2.74168 2 2.58626C2 2.43084 2.06174 2.28178 2.17164 2.17188C2.28154 2.06198 2.43059 2.00024 2.58602 2.00024C2.74144 2.00024 2.89049 2.06198 3.00039 2.17188L13.8285 13C13.9105 13.082 13.9663 13.1864 13.9889 13.3001C14.0116 13.4137 14 13.5316 13.9556 13.6387C13.9112 13.7457 13.8361 13.8373 13.7398 13.9016C13.6434 13.966 13.5301 14.0004 13.4142 14.0003Z" fill="#7C7C7C"/>
</svg>
