<svg width="24" height="24" viewBox="0 0 24 24" fill="none" xmlns="http://www.w3.org/2000/svg">
<path d="M16.5254 2.76576L14.5014 4.79076L14.2664 4.55776C13.5464 3.83476 12.2934 3.82976 11.5594 4.56476C10.8154 5.30776 10.8154 6.51976 11.5594 7.26476L11.7934 7.49876L3.76741 15.5238C3.18541 16.1058 2.91741 16.9398 3.03541 17.7548L2.45841 18.3338C1.85141 18.9138 1.85341 19.9598 2.45841 20.5398C3.03641 21.1468 4.08341 21.1468 4.66541 20.5408L5.24241 19.9618C6.05541 20.0818 6.89241 19.8118 7.47441 19.2308L15.5004 11.2058L15.7334 11.4388C16.4784 12.1838 17.6894 12.1838 18.4404 11.4328C19.1844 10.6878 19.1844 9.47576 18.4404 8.73276L18.2084 8.49776L20.2324 6.47376C21.2514 5.49576 21.2504 3.74176 20.2304 2.76576C19.7204 2.25576 19.0494 1.99976 18.3784 1.99976C17.7074 1.99976 17.0354 2.25576 16.5254 2.76576ZM14.8534 5.85276L17.2324 3.47376C17.8434 2.86176 18.9124 2.86176 19.5254 3.47576C20.1534 4.07776 20.1544 5.16276 19.5254 5.76576L17.1464 8.14476C16.9504 8.33876 16.9504 8.65676 17.1464 8.85176L17.7324 9.43876C18.0874 9.79276 18.0874 10.3708 17.7274 10.7318C17.3724 11.0868 16.7964 11.0868 16.4404 10.7318L12.2664 6.55776C11.9124 6.20276 11.9124 5.62576 12.2724 5.26576C12.6164 4.91776 13.2154 4.91776 13.5594 5.26576L14.1464 5.85276C14.2444 5.94976 14.3724 5.99776 14.5004 5.99776C14.6284 5.99776 14.7564 5.94976 14.8534 5.85276ZM3.16541 19.0408L3.93241 18.2728C4.05841 18.1468 4.10641 17.9638 4.06241 17.7928C3.91441 17.2218 4.06741 16.6388 4.47441 16.2308L12.5014 8.20576L14.7934 10.4978L6.76741 18.5238C6.36141 18.9298 5.77841 19.0838 5.20641 18.9358C5.03241 18.8918 4.85041 18.9408 4.72541 19.0658L3.95941 19.8338C3.84441 19.9528 3.71341 20.0028 3.58541 20.0028C3.15341 20.0028 2.76041 19.4308 3.16541 19.0408Z" fill="#757575"/>
</svg>
