<svg width="18" height="18" viewBox="0 0 18 18" fill="none" xmlns="http://www.w3.org/2000/svg">
<g clip-path="url(#clip0_584_5464)">
<path d="M9.00012 18C4.03746 18 0.00012207 13.9627 0.00012207 9C0.00012207 4.03734 4.03746 0 9.00012 0C13.9628 0 18.0001 4.03734 18.0001 9C18.0001 13.9627 13.9628 18 9.00012 18ZM9.00012 1.28568C4.74649 1.28568 1.2858 4.74637 1.2858 9C1.2858 13.2536 4.74649 16.7143 9.00012 16.7143C13.2538 16.7143 16.7144 13.2536 16.7144 9C16.7144 4.74637 13.2538 1.28568 9.00012 1.28568Z" fill="#3D3D3D"/>
<path d="M12.2145 12.8588C12.0499 12.8588 11.8854 12.796 11.7599 12.6704L5.33139 6.24184C5.08021 5.99067 5.08021 5.5839 5.33139 5.33286C5.58242 5.08182 5.98933 5.08169 6.24037 5.33286L12.6689 11.7614C12.9201 12.0125 12.9201 12.4193 12.6689 12.6704C12.5434 12.796 12.379 12.8588 12.2145 12.8588Z" fill="#3D3D3D"/>
<path d="M5.78581 12.8588C5.62129 12.8588 5.45691 12.7961 5.33139 12.6704C5.08021 12.4194 5.08021 12.0125 5.33139 11.7614L11.7599 5.33291C12.0111 5.08174 12.4178 5.08174 12.6689 5.33291C12.9199 5.58395 12.9201 5.99086 12.6689 6.24189L6.24037 12.6704C6.11485 12.7961 5.95033 12.8588 5.78581 12.8588Z" fill="#3D3D3D"/>
</g>
<defs>
<clipPath id="clip0_584_5464">
<rect width="18" height="18" fill="white"/>
</clipPath>
</defs>
</svg>
