<svg width="30" height="30" viewBox="0 0 30 30" fill="none" xmlns="http://www.w3.org/2000/svg">
<path d="M4.39315 6.13571L23.8386 25.5811C24.3265 26.0691 25.1184 26.0691 25.6064 25.5811C26.0943 25.0932 26.0943 24.3013 25.6064 23.8134L6.16091 4.36795C5.67301 3.88004 4.88105 3.88004 4.39315 4.36795C3.90524 4.85585 3.90524 5.64781 4.39315 6.13571Z" fill="black"/>
<path d="M6.1611 25.5807L25.6065 6.13522C26.0944 5.64732 26.0944 4.85536 25.6065 4.36746C25.1186 3.87955 24.3267 3.87955 23.8388 4.36746L4.39333 23.8129C3.90543 24.3008 3.90543 25.0928 4.39333 25.5807C4.88124 26.0686 5.6732 26.0686 6.1611 25.5807Z" fill="black"/>
</svg>
