<svg width="20" height="20" viewBox="0 0 20 20" fill="none" xmlns="http://www.w3.org/2000/svg">
<path d="M4.9974 13.3333C4.9974 12.4129 4.2512 11.6667 3.33073 11.6667C2.41025 11.6667 1.66406 12.4129 1.66406 13.3333C1.66406 14.2538 2.41025 15 3.33073 15C4.2512 15 4.9974 14.2538 4.9974 13.3333Z" fill="#7C7C7C"/>
<path d="M11.6693 13.3333C11.6693 12.4129 10.9231 11.6667 10.0026 11.6667C9.08213 11.6667 8.33594 12.4129 8.33594 13.3333C8.33594 14.2538 9.08213 15 10.0026 15C10.9231 15 11.6693 14.2538 11.6693 13.3333Z" fill="#7C7C7C"/>
<path d="M18.3333 13.3333C18.3333 12.4129 17.5871 11.6667 16.6667 11.6667C15.7462 11.6667 15 12.4129 15 13.3333C15 14.2538 15.7462 15 16.6667 15C17.5871 15 18.3333 14.2538 18.3333 13.3333Z" fill="#7C7C7C"/>
<path d="M4.9974 6.66927C4.9974 5.7488 4.2512 5.0026 3.33073 5.0026C2.41025 5.0026 1.66406 5.7488 1.66406 6.66927C1.66406 7.58975 2.41025 8.33594 3.33073 8.33594C4.2512 8.33594 4.9974 7.58975 4.9974 6.66927Z" fill="#7C7C7C"/>
<path d="M11.6693 6.66927C11.6693 5.7488 10.9231 5.0026 10.0026 5.0026C9.08213 5.0026 8.33594 5.7488 8.33594 6.66927C8.33594 7.58975 9.08213 8.33594 10.0026 8.33594C10.9231 8.33594 11.6693 7.58975 11.6693 6.66927Z" fill="#7C7C7C"/>
<path d="M18.3333 6.66927C18.3333 5.7488 17.5871 5.0026 16.6667 5.0026C15.7462 5.0026 15 5.7488 15 6.66927C15 7.58975 15.7462 8.33594 16.6667 8.33594C17.5871 8.33594 18.3333 7.58975 18.3333 6.66927Z" fill="#7C7C7C"/>
</svg>
