<svg width="16" height="16" viewBox="0 0 16 16" fill="none" xmlns="http://www.w3.org/2000/svg">
<path d="M2.58654 14.0001C2.47063 14.0001 2.35733 13.9658 2.26095 13.9014C2.16457 13.837 2.08945 13.7455 2.0451 13.6384C2.00074 13.5313 1.98914 13.4135 2.01175 13.2998C2.03437 13.1861 2.09019 13.0817 2.17216 12.9998L13.0003 2.17164C13.1102 2.06174 13.2593 2 13.4147 2C13.5701 2 13.7192 2.06174 13.8291 2.17164C13.939 2.28154 14.0007 2.43059 14.0007 2.58602C14.0007 2.74144 13.939 2.89049 13.8291 3.00039L3.00091 13.8285C2.94655 13.883 2.88195 13.9262 2.81084 13.9557C2.73973 13.9851 2.6635 14.0002 2.58654 14.0001Z" fill="#EF4444"/>
<path d="M13.4147 14.0001C13.3377 14.0002 13.2615 13.9851 13.1903 13.9557C13.1192 13.9262 13.0546 13.883 13.0003 13.8285L2.17213 3.00039C2.06223 2.89049 2.00049 2.74144 2.00049 2.58602C2.00049 2.43059 2.06223 2.28154 2.17213 2.17164C2.28203 2.06174 2.43108 2 2.5865 2C2.74193 2 2.89098 2.06174 3.00088 2.17164L13.829 12.9998C13.911 13.0817 13.9668 13.1861 13.9894 13.2998C14.0121 13.4135 14.0004 13.5313 13.9561 13.6384C13.9117 13.7455 13.8366 13.837 13.7402 13.9014C13.6439 13.9658 13.5306 14.0001 13.4147 14.0001Z" fill="#EF4444"/>
</svg>
