<svg width="69" height="45" viewBox="0 0 69 45" fill="none" xmlns="http://www.w3.org/2000/svg">
<path d="M56.3859 18.7339C56.3859 18.5484 56.4167 18.3629 56.4167 18.1774C56.4167 8.13038 48.4386 0 38.5969 0C31.4967 0 25.3975 4.23522 22.5328 10.3562C21.2853 9.72245 19.8837 9.35148 18.4051 9.35148C13.8616 9.35148 10.0728 12.7366 9.34888 17.1573C3.89665 19.043 0 24.2829 0 30.4503C0 38.2097 6.17612 44.5161 13.7846 44.5161H29.5714V32.1505H22.1478L34.5 19.213L46.8522 32.1351H39.4286V44.5007H56.4167C63.3783 44.5007 69 38.7043 69 31.6095C69 24.5148 63.3475 18.7493 56.3859 18.7339Z" fill="#4489FE"/>
</svg>
