<svg class="svg-icon" style="width: 1.5751953125em;height: 1em;vertical-align: middle;fill: currentColor;overflow: hidden;" viewBox="0 0 1613 1024" version="1.1" xmlns="http://www.w3.org/2000/svg"><path d="M0 218.674305a73.331424 73.331424 0 0 1 73.331424-73.331423h195.794901a37.399026 37.399026 0 0 0 33.732455-22.732742 219.994271 219.994271 0 0 1 394.523059 0 37.399026 37.399026 0 0 0 33.732455 22.732742h806.64566a73.331424 73.331424 0 0 1 0 146.662847H733.314237a37.399026 37.399026 0 0 0-33.732455 22.732741 219.994271 219.994271 0 0 1-394.52306 0 37.399026 37.399026 0 0 0-33.732454-22.732741H73.331424a73.331424 73.331424 0 0 1-73.331424-73.331424z m1539.959897 513.319966h-195.794901a37.399026 37.399026 0 0 1-33.732455-22.732741 219.994271 219.994271 0 0 0-394.523059 0 37.399026 37.399026 0 0 1-33.732455 22.732741H73.331424a73.331424 73.331424 0 0 0 0 146.662847h806.64566a37.399026 37.399026 0 0 1 33.732455 22.732742 219.994271 219.994271 0 0 0 394.523059 0 37.399026 37.399026 0 0 1 33.732455-22.732742H1539.959897a73.331424 73.331424 0 0 0 0-146.662847z"  /></svg>