<svg class="svg-icon" style="width: 1.5712890625em;height: 1em;vertical-align: middle;fill: currentColor;overflow: hidden;" viewBox="0 0 1609 1024" version="1.1" xmlns="http://www.w3.org/2000/svg"><path d="M1536 292.571429H73.142857a73.142857 73.142857 0 0 1 0-146.285715h1462.857143a73.142857 73.142857 0 0 1 0 146.285715z m73.142857 512a73.142857 73.142857 0 0 0-73.142857-73.142858H73.142857a73.142857 73.142857 0 0 0 0 146.285715h1462.857143a73.142857 73.142857 0 0 0 73.142857-73.142857z" fill="#0B70DD" /><path d="M871.862857 731.428571h378.148572a204.8 204.8 0 0 1 27.062857 146.285715h-431.542857a204.8 204.8 0 0 1 27.062857-146.285715zM256 256a219.428571 219.428571 0 0 0 3.657143 36.571429h431.542857a204.8 204.8 0 0 0-27.062857-146.285715H285.988571a219.428571 219.428571 0 0 0-29.988571 109.714286z" fill="#0C62AF" /><path d="M731.428571 219.428571a219.428571 219.428571 0 1 1-219.428571-219.428571 219.428571 219.428571 0 0 1 219.428571 219.428571z m365.714286 365.714286a219.428571 219.428571 0 1 0 219.428572 219.428572 219.428571 219.428571 0 0 0-219.428572-219.428572z" fill="#3395FF" /></svg>