<svg width="20" height="20" viewBox="0 0 20 20" fill="none" xmlns="http://www.w3.org/2000/svg">
<path d="M9.989 15.6152C10.2745 15.6152 10.5157 15.5168 10.7125 15.3198C10.9093 15.1226 11.0078 14.8812 11.0078 14.5955C11.0078 14.31 10.9092 14.0688 10.712 13.872C10.5148 13.6753 10.2735 13.577 9.988 13.577C9.7025 13.577 9.46133 13.6756 9.2645 13.8728C9.06767 14.0699 8.96925 14.3113 8.96925 14.5968C8.96925 14.8822 9.06783 15.1234 9.265 15.3203C9.46217 15.5169 9.7035 15.6152 9.989 15.6152ZM9.28075 12.0345H10.6885C10.7013 11.5423 10.7734 11.1491 10.9047 10.8548C11.0363 10.5606 11.3552 10.1706 11.8615 9.68475C12.3013 9.24492 12.6382 8.83875 12.872 8.46625C13.106 8.09392 13.223 7.65417 13.223 7.147C13.223 6.28617 12.9137 5.61375 12.2952 5.12975C11.6766 4.64592 10.9448 4.404 10.1 4.404C9.26533 4.404 8.57467 4.62675 8.028 5.07225C7.48117 5.51775 7.09108 6.04242 6.85775 6.64625L8.14225 7.1615C8.26408 6.8295 8.47242 6.50608 8.76725 6.19125C9.06208 5.87658 9.49992 5.71925 10.0808 5.71925C10.6718 5.71925 11.1086 5.88108 11.3913 6.20475C11.6741 6.52858 11.8155 6.88467 11.8155 7.273C11.8155 7.61283 11.7187 7.92375 11.525 8.20575C11.3315 8.48775 11.0848 8.76017 10.7848 9.023C10.1283 9.61533 9.7135 10.0878 9.5405 10.4405C9.36733 10.793 9.28075 11.3243 9.28075 12.0345ZM10.0017 19.5C8.68775 19.5 7.45267 19.2507 6.2965 18.752C5.14033 18.2533 4.13467 17.5766 3.2795 16.7218C2.42433 15.8669 1.74725 14.8617 1.24825 13.706C0.749417 12.5503 0.5 11.3156 0.5 10.0017C0.5 8.68775 0.749333 7.45267 1.248 6.2965C1.74667 5.14033 2.42342 4.13467 3.27825 3.2795C4.13308 2.42433 5.13833 1.74725 6.294 1.24825C7.44967 0.749417 8.68442 0.5 9.99825 0.5C11.3123 0.5 12.5473 0.749333 13.7035 1.248C14.8597 1.74667 15.8653 2.42342 16.7205 3.27825C17.5757 4.13308 18.2528 5.13833 18.7518 6.294C19.2506 7.44967 19.5 8.68442 19.5 9.99825C19.5 11.3123 19.2507 12.5473 18.752 13.7035C18.2533 14.8597 17.5766 15.8653 16.7218 16.7205C15.8669 17.5757 14.8617 18.2528 13.706 18.7518C12.5503 19.2506 11.3156 19.5 10.0017 19.5ZM10 18C12.2333 18 14.125 17.225 15.675 15.675C17.225 14.125 18 12.2333 18 10C18 7.76667 17.225 5.875 15.675 4.325C14.125 2.775 12.2333 2 10 2C7.76667 2 5.875 2.775 4.325 4.325C2.775 5.875 2 7.76667 2 10C2 12.2333 2.775 14.125 4.325 15.675C5.875 17.225 7.76667 18 10 18Z" fill="#B0B0B0"/>
</svg>
