<svg width="16" height="16" viewBox="0 0 16 16" fill="none" xmlns="http://www.w3.org/2000/svg">
<g clipPath="url(#clip0_1_1495)">
<path d="M15.8566 7.62393L12.8963 4.65517C12.7004 4.45869 12.3824 4.45869 12.1865 4.65517C11.9905 4.85161 11.9905 5.17054 12.1865 5.36699L14.3155 7.50195H1.68356L3.81253 5.36699C4.00848 5.17054 4.00848 4.85161 3.81253 4.65517C3.61658 4.45869 3.29865 4.45869 3.1027 4.65517L0.142429 7.62393C0.0379584 7.7289 -0.00653846 7.86788 0.000468098 8.00485C-0.00653846 8.14231 0.0379584 8.28127 0.142429 8.38626L3.1032 11.355C3.29915 11.5515 3.61708 11.5515 3.81303 11.355C4.00898 11.1586 4.00898 10.8397 3.81303 10.6432L1.68356 8.50825H14.3154L12.1865 10.6432C11.9905 10.8397 11.9905 11.1586 12.1865 11.355C12.3824 11.5515 12.7003 11.5515 12.8963 11.355L15.8571 8.38626C15.9615 8.2813 16.006 8.14231 15.9991 8.00485C16.0055 7.86786 15.9611 7.7289 15.8566 7.62393Z" fill="#454545"/>
</g>
<defs>
<clipPath id="clip0_1_1495">
<rect width="16" height="16" fill="white"/>
</clipPath>
</defs>
</svg>
