<svg width="24" height="24" viewBox="0 0 24 24" fill="none" xmlns="http://www.w3.org/2000/svg">
<path d="M8.00781 12C8.00781 10.9 7.10781 10 6.00781 10C4.90781 10 4.00781 10.9 4.00781 12C4.00781 13.1 4.90781 14 6.00781 14C7.10781 14 8.00781 13.1 8.00781 12ZM10.0078 12C10.0078 13.1 10.9078 14 12.0078 14C13.1078 14 14.0078 13.1 14.0078 12C14.0078 10.9 13.1078 10 12.0078 10C10.9078 10 10.0078 10.9 10.0078 12ZM16.0078 12C16.0078 13.1 16.9078 14 18.0078 14C19.1078 14 20.0078 13.1 20.0078 12C20.0078 10.9 19.1078 10 18.0078 10C16.9078 10 16.0078 10.9 16.0078 12Z" fill="#757575"/>
</svg>
