<svg width="141" height="48" viewBox="0 0 141 48" fill="none" xmlns="http://www.w3.org/2000/svg">
<path d="M5.07031 38.2325V40.8619L19.3444 33.3492V30.7197L5.07031 38.2325Z" fill="white"/>
<path d="M7.51172 41.613V44.2425L18.2173 38.6079V35.9785L7.51172 41.613Z" fill="white"/>
<path d="M9.57812 45.3706V48.0001L16.7152 44.2436V41.6143L9.57812 45.3706Z" fill="white"/>
<path fillRule="evenodd" clipRule="evenodd" d="M4.52381 25.2374C4.1944 24.6471 3.79968 24.1707 3.56836 23.9393L5.42767 22.0801C5.82241 22.4749 6.36678 23.1441 6.82 23.9561C7.26741 24.7578 7.69098 25.8149 7.69098 26.9539V34.2216L5.06147 35.6029V26.9539C5.06147 26.4402 4.85896 25.838 4.52381 25.2374Z" fill="white"/>
<path fillRule="evenodd" clipRule="evenodd" d="M20.6342 25.2374C20.9636 24.6471 21.3583 24.1707 21.5897 23.9393L19.7303 22.0801C19.3356 22.4749 18.7912 23.1441 18.338 23.9561C17.8906 24.7578 17.467 25.8149 17.467 26.9539L17.4672 29.0293L20.0966 27.7051V26.9539C20.0966 26.4402 20.299 25.838 20.6342 25.2374Z" fill="white"/>
<path fillRule="evenodd" clipRule="evenodd" d="M12.5838 6.11569C7.04384 6.11569 2.62945 10.4459 2.62945 15.6944C2.62945 17.7707 3.31465 19.6926 4.48516 21.2651L2.37594 22.8351C0.883336 20.8301 0 18.3622 0 15.6944C0 8.91033 5.67632 3.48633 12.5838 3.48633C19.4912 3.48633 25.1676 8.91033 25.1676 15.6944C25.1676 18.3622 24.2842 20.8301 22.7917 22.8351L20.6824 21.2651C21.853 19.6926 22.5382 17.7707 22.5382 15.6944C22.5382 10.4459 18.1238 6.11569 12.5838 6.11569Z" fill="#FFB000"/>
<path fillRule="evenodd" clipRule="evenodd" d="M18.9688 16.0703H6.19727V18.6997H11.0805V32.4103L13.7099 31.0578V18.6997H18.9688V16.0703Z" fill="#FFB000"/>
<path d="M34.7648 17.4632C33.8339 17.4632 33.0139 17.3155 32.3047 17.02C31.6102 16.7245 31.0194 16.3108 30.5317 15.779C30.059 15.2471 29.7043 14.6192 29.468 13.8951C29.2315 13.1564 29.1133 12.3437 29.1133 11.4572C29.1133 10.5708 29.2389 9.75813 29.49 9.01942C29.7561 8.28057 30.1254 7.64536 30.5983 7.11336C31.071 6.56667 31.6471 6.14571 32.3268 5.8502C33.0214 5.53986 33.7896 5.38477 34.6318 5.38477C35.1489 5.38477 35.666 5.4291 36.1832 5.51777C36.7002 5.60629 37.1953 5.74671 37.668 5.93887L37.2026 7.6897C36.8924 7.54187 36.5304 7.42369 36.1166 7.33503C35.7177 7.24636 35.2892 7.20202 34.8312 7.20202C33.6788 7.20202 32.7923 7.5641 32.1717 8.28798C31.5659 9.01201 31.2631 10.0685 31.2631 11.4572C31.2631 12.0777 31.3295 12.6467 31.4625 13.1637C31.6102 13.6809 31.8319 14.1241 32.1274 14.4936C32.4377 14.8629 32.8292 15.151 33.302 15.3579C33.7749 15.5499 34.3511 15.646 35.0306 15.646C35.5773 15.646 36.0723 15.5942 36.5156 15.4909C36.9588 15.3874 37.306 15.2766 37.5572 15.1584L37.8453 16.887C37.7271 16.9609 37.5572 17.0349 37.3356 17.1087C37.114 17.1679 36.8629 17.2195 36.582 17.2638C36.3013 17.323 35.9984 17.3673 35.6734 17.3968C35.3631 17.4411 35.0603 17.4632 34.7648 17.4632Z" fill="white"/>
<path d="M45.0663 15.7124C45.5539 15.7124 45.9824 15.7051 46.3517 15.6903C46.7359 15.6608 47.0535 15.6165 47.3047 15.5573V12.1221C47.157 12.0482 46.9132 11.9892 46.5734 11.9449C46.2484 11.8857 45.8494 11.8562 45.3767 11.8562C45.0663 11.8562 44.7339 11.8783 44.3794 11.9226C44.0395 11.967 43.7218 12.0631 43.4263 12.2107C43.1456 12.3437 42.9092 12.5358 42.7171 12.7869C42.525 13.0234 42.429 13.341 42.429 13.74C42.429 14.4787 42.6655 14.9959 43.1382 15.2913C43.611 15.5721 44.2538 15.7124 45.0663 15.7124ZM44.889 5.38477C45.7165 5.38477 46.4109 5.49553 46.9722 5.7172C47.5486 5.92404 48.0066 6.22697 48.3465 6.62583C48.701 7.01001 48.9522 7.47544 49.0998 8.02213C49.2477 8.55399 49.3215 9.14501 49.3215 9.79505V16.9979C49.1442 17.0274 48.893 17.0718 48.568 17.1308C48.2578 17.1751 47.9031 17.2195 47.5043 17.2638C47.1052 17.3081 46.6695 17.345 46.1966 17.3747C45.7386 17.4189 45.2806 17.4411 44.8226 17.4411C44.1725 17.4411 43.5741 17.3747 43.0274 17.2417C42.4807 17.1087 42.0079 16.9019 41.609 16.6212C41.21 16.3257 40.8998 15.9415 40.6781 15.4686C40.4566 14.9959 40.3457 14.427 40.3457 13.7621C40.3457 13.1268 40.4713 12.5801 40.7225 12.1221C40.9885 11.6641 41.343 11.2947 41.7863 11.014C42.2295 10.7333 42.7467 10.5265 43.3377 10.3935C43.9286 10.2605 44.5491 10.1941 45.1993 10.1941C45.4062 10.1941 45.6204 10.2087 45.8421 10.2384C46.0636 10.2531 46.2705 10.2826 46.4626 10.3269C46.6695 10.3566 46.8467 10.3861 46.9945 10.4156C47.1422 10.4452 47.2457 10.4673 47.3047 10.4822V9.90581C47.3047 9.56611 47.2678 9.23368 47.1939 8.90852C47.1201 8.56882 46.9871 8.2733 46.7951 8.02213C46.6029 7.75612 46.337 7.54928 45.9972 7.40145C45.6722 7.23894 45.2437 7.15769 44.7118 7.15769C44.0321 7.15769 43.4337 7.20943 42.9166 7.31293C42.4143 7.40145 42.0375 7.49753 41.7863 7.60103L41.5426 5.89453C41.8084 5.77621 42.2518 5.66545 42.8723 5.5621C43.4928 5.44378 44.1651 5.38477 44.889 5.38477Z" fill="white"/>
<path d="M61.8541 11.4578C61.8541 10.1134 61.5217 9.07903 60.8568 8.35515C60.192 7.63112 59.3056 7.26918 58.1974 7.26918C57.5768 7.26918 57.0893 7.29128 56.7346 7.33561C56.3948 7.37994 56.1215 7.43169 55.9147 7.49071V14.76C56.1659 14.9669 56.5278 15.1663 57.0006 15.3585C57.4733 15.5505 57.9905 15.6465 58.552 15.6465C59.1429 15.6465 59.6453 15.5431 60.059 15.3362C60.4875 15.1147 60.8347 14.8192 61.1007 14.4498C61.3666 14.0656 61.5588 13.6223 61.6769 13.12C61.7951 12.6029 61.8541 12.0488 61.8541 11.4578ZM64.004 11.4578C64.004 12.3295 63.8858 13.1348 63.6493 13.8735C63.4278 14.6123 63.0953 15.2477 62.652 15.7796C62.2088 16.3114 61.6621 16.7251 61.0121 17.0206C60.3767 17.3161 59.6453 17.4638 58.8179 17.4638C58.153 17.4638 57.562 17.3753 57.045 17.198C56.5426 17.0206 56.1659 16.8507 55.9147 16.6882V21.298H53.8535V6.02798C54.341 5.9098 54.9469 5.78421 55.6709 5.65121C56.4096 5.50352 57.2592 5.42969 58.2196 5.42969C59.106 5.42969 59.9039 5.56996 60.6131 5.85079C61.3223 6.13147 61.9281 6.53033 62.4305 7.04751C62.9328 7.56469 63.3169 8.1999 63.5829 8.95343C63.8635 9.69228 64.004 10.5271 64.004 11.4578Z" fill="white"/>
<path d="M70.0745 17.1973H68.0135V5.67279H70.0745V17.1973ZM69.0329 3.58953C68.6635 3.58953 68.3459 3.47136 68.0799 3.23486C67.8287 2.98368 67.7031 2.65125 67.7031 2.23756C67.7031 1.82388 67.8287 1.49886 68.0799 1.26251C68.3459 1.01133 68.6635 0.885742 69.0329 0.885742C69.4022 0.885742 69.7125 1.01133 69.9637 1.26251C70.2297 1.49886 70.3626 1.82388 70.3626 2.23756C70.3626 2.65125 70.2297 2.98368 69.9637 3.23486C69.7125 3.47136 69.4022 3.58953 69.0329 3.58953Z" fill="white"/>
<path d="M76.6545 5.6737H81.0205V7.40229H76.6545L76.6282 20.2032H74.5623L74.5934 2.46014L76.6545 2.10547V5.6737Z" fill="white"/>
<path d="M88.6523 15.7114C89.1398 15.7114 89.5683 15.7042 89.9377 15.6893C90.3218 15.6598 90.6394 15.6155 90.8906 15.5563V12.1211C90.7429 12.0473 90.4992 11.9882 90.1593 11.9439C89.8343 11.8847 89.4353 11.8552 88.9626 11.8552C88.6523 11.8552 88.3198 11.8773 87.9652 11.9217C87.6255 11.966 87.3077 12.0621 87.0122 12.2098C86.7315 12.3428 86.4952 12.5348 86.303 12.786C86.111 13.0225 86.0149 13.3401 86.0149 13.7391C86.0149 14.4778 86.2514 14.995 86.7241 15.2903C87.1969 15.5711 87.8396 15.7114 88.6523 15.7114ZM88.4749 5.38379C89.3023 5.38379 89.9968 5.49455 90.5582 5.71622C91.1345 5.92307 91.5925 6.22599 91.9322 6.62485C92.2869 7.00903 92.5381 7.47446 92.6858 8.02115C92.8336 8.55301 92.9075 9.14403 92.9075 9.79407V16.997C92.7301 17.0265 92.4789 17.0708 92.1539 17.1298C91.8437 17.1741 91.489 17.2185 91.0902 17.2628C90.6912 17.3072 90.2554 17.3441 89.7826 17.3737C89.3245 17.4179 88.8665 17.4402 88.4085 17.4402C87.7583 17.4402 87.16 17.3737 86.6133 17.2407C86.0666 17.1077 85.5938 16.9009 85.1949 16.6202C84.7959 16.3247 84.4857 15.9405 84.2641 15.4677C84.0424 14.995 83.9316 14.426 83.9316 13.7612C83.9316 13.1258 84.0572 12.5791 84.3084 12.1211C84.5744 11.6631 84.9289 11.2937 85.3723 11.013C85.8155 10.7324 86.3327 10.5255 86.9235 10.3925C87.5146 10.2595 88.1351 10.1931 88.7853 10.1931C88.9921 10.1931 89.2064 10.2078 89.4279 10.2374C89.6496 10.2521 89.8564 10.2816 90.0486 10.3259C90.2554 10.3556 90.4326 10.3851 90.5804 10.4146C90.7281 10.4443 90.8316 10.4664 90.8906 10.4812V9.90484C90.8906 9.56514 90.8537 9.23271 90.7799 8.90754C90.706 8.56784 90.573 8.27233 90.381 8.02115C90.1888 7.75515 89.923 7.54831 89.5831 7.40048C89.258 7.23797 88.8296 7.15671 88.2976 7.15671C87.618 7.15671 87.0196 7.20846 86.5024 7.31195C86.0002 7.40047 85.6234 7.49656 85.3723 7.60005L85.1284 5.89356C85.3944 5.77524 85.8376 5.66448 86.4582 5.56113C87.0788 5.44281 87.7511 5.38379 88.4749 5.38379Z" fill="white"/>
<path d="M100.896 17.4196C99.6256 17.3901 98.7243 17.1168 98.1924 16.5996C97.6605 16.0826 97.3945 15.2773 97.3945 14.184V0.354527L99.4557 0V13.8515C99.4557 14.1914 99.4852 14.4721 99.5444 14.6937C99.6034 14.9152 99.6995 15.0926 99.8325 15.2256C99.9653 15.3586 100.143 15.4619 100.364 15.5359C100.586 15.5949 100.859 15.6467 101.184 15.691L100.896 17.4196Z" fill="white"/>
<path d="M76.6256 29.7837C76.6256 30.3599 76.67 30.8402 76.7585 31.2243C76.8471 31.5937 76.9801 31.8892 77.1575 32.1107C77.3348 32.3176 77.5563 32.4654 77.8223 32.5541C78.0884 32.6427 78.3985 32.6871 78.7532 32.6871C79.3737 32.6871 79.8687 32.6205 80.238 32.4875C80.6222 32.3398 80.8881 32.2363 81.0359 32.1773L81.4348 33.8838C81.2279 33.9871 80.866 34.1127 80.3488 34.2605C79.8318 34.4231 79.2407 34.5043 78.5759 34.5043C77.7928 34.5043 77.1427 34.4082 76.6256 34.2162C76.1233 34.0094 75.7168 33.7064 75.4067 33.3076C75.0963 32.9086 74.8748 32.4211 74.7418 31.8449C74.6236 31.2538 74.5645 30.5741 74.5645 29.8059V19.5225L76.6256 19.168V29.7837Z" fill="white"/>
<path d="M83.3709 36.4105C83.5334 36.4845 83.7403 36.5509 83.9914 36.6101C84.2573 36.6839 84.5159 36.7209 84.7671 36.7209C85.5797 36.7209 86.215 36.5361 86.673 36.1667C87.1311 35.8122 87.5448 35.2286 87.9142 34.4159C86.9833 32.643 86.1116 30.7666 85.2989 28.7867C84.5012 26.7921 83.8362 24.7753 83.3043 22.7363H85.5206C85.6831 23.4012 85.8753 24.1178 86.0968 24.8862C86.3333 25.6544 86.5917 26.4448 86.8726 27.2575C87.1532 28.0701 87.4562 28.8828 87.7812 29.6953C88.1062 30.508 88.446 31.291 88.8007 32.0446C89.3621 30.4932 89.8496 28.9566 90.2633 27.4347C90.6771 25.913 91.0686 24.3467 91.4379 22.7363H93.5655C93.0337 24.9083 92.4426 26.9989 91.7926 29.0083C91.1424 31.0029 90.4406 32.8719 89.6871 34.6154C89.3916 35.2804 89.0814 35.8491 88.7564 36.322C88.446 36.8095 88.0988 37.2084 87.7148 37.5187C87.3306 37.8289 86.8947 38.058 86.4071 38.2057C85.9343 38.3535 85.395 38.4273 84.7893 38.4273C84.6268 38.4273 84.4569 38.4125 84.2795 38.383C84.1022 38.3683 83.9249 38.3387 83.7477 38.2943C83.585 38.2648 83.4299 38.2279 83.2822 38.1836C83.1492 38.1393 83.0532 38.1023 82.9941 38.0728L83.3709 36.4105Z" fill="white"/>
<path d="M104.846 28.5203C104.846 27.1759 104.514 26.1415 103.849 25.4176C103.184 24.6936 102.298 24.3317 101.189 24.3317C100.569 24.3317 100.081 24.3538 99.7267 24.3981C99.387 24.4424 99.1136 24.4942 98.9067 24.5532V31.8225C99.1579 32.0294 99.5198 32.2289 99.9927 32.421C100.466 32.613 100.983 32.7091 101.544 32.7091C102.135 32.7091 102.637 32.6057 103.051 32.3989C103.48 32.1772 103.827 31.8817 104.093 31.5123C104.359 31.1282 104.551 30.685 104.669 30.1826C104.787 29.6654 104.846 29.1113 104.846 28.5203ZM106.996 28.5203C106.996 29.3921 106.878 30.1973 106.641 30.9361C106.42 31.6748 106.087 32.3102 105.644 32.8421C105.201 33.3739 104.654 33.7876 104.004 34.0831C103.369 34.3786 102.637 34.5265 101.81 34.5265C101.145 34.5265 100.554 34.4378 100.037 34.2605C99.5347 34.0831 99.1579 33.9132 98.9067 33.7507V38.3605H96.8457V23.0906C97.3332 22.9723 97.9389 22.8467 98.663 22.7139C99.4017 22.566 100.251 22.4922 101.212 22.4922C102.098 22.4922 102.896 22.6326 103.605 22.9133C104.314 23.194 104.92 23.593 105.423 24.11C105.925 24.6272 106.309 25.2625 106.575 26.0159C106.856 26.7548 106.996 27.5896 106.996 28.5203Z" fill="white"/>
<path d="M113.067 34.2598H111.006V22.7353H113.067V34.2598ZM112.025 20.652C111.656 20.652 111.338 20.5339 111.072 20.2974C110.821 20.0462 110.695 19.7138 110.695 19.3001C110.695 18.8864 110.821 18.5614 111.072 18.325C111.338 18.0738 111.656 17.9482 112.025 17.9482C112.395 17.9482 112.705 18.0738 112.956 18.325C113.222 18.5614 113.355 18.8864 113.355 19.3001C113.355 19.7138 113.222 20.0462 112.956 20.2974C112.705 20.5339 112.395 20.652 112.025 20.652Z" fill="white"/>
<path d="M117.719 23.0684C118.192 22.9502 118.82 22.8246 119.603 22.6916C120.386 22.5586 121.287 22.4922 122.306 22.4922C123.223 22.4922 123.983 22.6252 124.589 22.891C125.195 23.1422 125.675 23.5043 126.03 23.977C126.399 24.435 126.658 24.9891 126.805 25.6392C126.953 26.2894 127.027 27.006 127.027 27.789V34.2605H124.966V28.2322C124.966 27.523 124.914 26.9173 124.811 26.4149C124.722 25.9126 124.567 25.5063 124.345 25.196C124.124 24.8858 123.828 24.6641 123.459 24.5311C123.09 24.3834 122.632 24.3094 122.085 24.3094C121.863 24.3094 121.634 24.3169 121.398 24.3317C121.161 24.3464 120.932 24.3686 120.711 24.3981C120.504 24.4129 120.312 24.435 120.135 24.4647C119.972 24.4942 119.854 24.5163 119.78 24.5311V34.2605H117.719V23.0684Z" fill="white"/>
<path d="M138.778 33.1081C138.601 33.2262 138.253 33.3813 137.736 33.5733C137.235 33.7507 136.643 33.8394 135.963 33.8394C135.269 33.8394 134.611 33.7286 133.991 33.5069C133.385 33.2853 132.853 32.9454 132.395 32.4874C131.937 32.0147 131.575 31.4311 131.309 30.7366C131.043 30.0422 130.91 29.2148 130.91 28.2544C130.91 27.4122 131.036 26.6439 131.287 25.9495C131.538 25.2403 131.9 24.6346 132.373 24.1323C132.86 23.6151 133.451 23.2162 134.146 22.9354C134.84 22.6399 135.623 22.4922 136.495 22.4922C137.455 22.4922 138.29 22.566 138.999 22.7139C139.723 22.8467 140.329 22.9723 140.816 23.0906V33.3739C140.816 35.147 140.358 36.4324 139.442 37.2302C138.527 38.0281 137.137 38.427 135.276 38.427C134.552 38.427 133.865 38.3679 133.215 38.2496C132.58 38.1315 132.026 37.9912 131.553 37.8285L131.93 36.0334C132.343 36.196 132.846 36.3363 133.437 36.4545C134.042 36.5875 134.67 36.6541 135.32 36.6541C136.547 36.6541 137.426 36.4101 137.958 35.9226C138.505 35.4351 138.778 34.6593 138.778 33.5956V33.1081ZM138.755 24.5532C138.549 24.4942 138.268 24.4424 137.913 24.3981C137.573 24.3391 137.108 24.3094 136.518 24.3094C135.409 24.3094 134.552 24.6715 133.946 25.3954C133.355 26.1194 133.06 27.0798 133.06 28.2765C133.06 28.9414 133.141 29.5103 133.304 29.983C133.481 30.4559 133.71 30.8475 133.991 31.1577C134.286 31.468 134.619 31.6969 134.988 31.8448C135.372 31.9924 135.764 32.0664 136.163 32.0664C136.71 32.0664 137.211 31.9924 137.669 31.8448C138.127 31.6823 138.49 31.4975 138.755 31.2907V24.5532Z" fill="white"/>
</svg>
