<svg width="24" height="24" viewBox="0 0 24 24" fill="none" xmlns="http://www.w3.org/2000/svg">
<g clipPath="url(#clip0_303_4555)">
<path d="M20.6838 6.45253L14.3701 0.138846C14.2811 0.0498772 14.1605 -9.15527e-05 14.0346 -9.15527e-05H5.13809C4.05766 -9.15527e-05 3.17871 0.878862 3.17871 1.95928V22.0405C3.17871 23.121 4.05766 23.9999 5.13809 23.9999H18.8633C19.9437 23.9999 20.8226 23.121 20.8226 22.0405V6.78792C20.8226 6.66216 20.7727 6.54146 20.6838 6.45253ZM14.509 1.61939L19.2032 6.3135H15.5197C14.9624 6.3135 14.5091 5.86013 14.5091 5.30278V1.61939H14.509ZM19.874 22.0405C19.874 22.5978 19.4206 23.0513 18.8633 23.0513H5.13809C4.58079 23.0513 4.12737 22.5978 4.12737 22.0405V1.95928C4.12737 1.40199 4.58079 0.948565 5.13809 0.948565H13.5603V5.30288C13.5603 6.3833 14.4392 7.26225 15.5196 7.26225H19.874V22.0405Z" fill="#212121"/>
<path d="M15.7957 12.0473H8.20675C7.94481 12.0473 7.73242 12.2597 7.73242 12.5217C7.73242 12.7836 7.94481 12.996 8.20675 12.996H15.7957C16.0577 12.996 16.27 12.7836 16.27 12.5217C16.27 12.2597 16.0577 12.0473 15.7957 12.0473Z" fill="#212121"/>
<path d="M15.7957 14.1659H8.20675C7.94481 14.1659 7.73242 14.3783 7.73242 14.6402C7.73242 14.9022 7.94481 15.1146 8.20675 15.1146H15.7957C16.0577 15.1146 16.27 14.9022 16.27 14.6402C16.27 14.3783 16.0577 14.1659 15.7957 14.1659Z" fill="#212121"/>
<path d="M15.7957 16.2845H8.20675C7.94481 16.2845 7.73242 16.4969 7.73242 16.7588C7.73242 17.0208 7.94481 17.2331 8.20675 17.2331H15.7957C16.0577 17.2331 16.27 17.0208 16.27 16.7588C16.27 16.4969 16.0577 16.2845 15.7957 16.2845Z" fill="#212121"/>
<path d="M13.3293 18.4031H8.20675C7.94481 18.4031 7.73242 18.6155 7.73242 18.8774C7.73242 19.1393 7.94481 19.3517 8.20675 19.3517H13.3293C13.5913 19.3517 13.8036 19.1393 13.8036 18.8774C13.8036 18.6155 13.5913 18.4031 13.3293 18.4031Z" fill="#212121"/>
<rect x="12.5" y="8.49991" width="11" height="11" rx="5.5" fill="white"/>
<rect x="12.5" y="8.49991" width="11" height="11" rx="5.5" stroke="black"/>
<path d="M19.2188 11.3632C19.2188 10.5878 18.5879 9.95697 17.8125 9.95697C17.0371 9.95697 16.4062 10.5878 16.4062 11.3632V12.7695H15V13.8242C15 15.2559 16.0755 16.4403 17.4609 16.6139V17.3397H16.582V18.0429H19.043V17.3397H18.1641V16.6139C19.5495 16.4403 20.625 15.2559 20.625 13.8242V12.7695H19.2188V11.3632ZM17.1094 11.3632C17.1094 10.9755 17.4248 10.6601 17.8125 10.6601C18.2002 10.6601 18.5156 10.9755 18.5156 11.3632V13.8242C18.5156 14.2119 18.2002 14.5273 17.8125 14.5273C17.4248 14.5273 17.1094 14.2119 17.1094 13.8242V11.3632ZM19.9219 13.4726V13.8242C19.9219 14.9873 18.9756 15.9335 17.8125 15.9335C16.6494 15.9335 15.7031 14.9873 15.7031 13.8242V13.4726H16.4062V13.8242C16.4062 14.5996 17.0371 15.2304 17.8125 15.2304C18.5879 15.2304 19.2188 14.5996 19.2188 13.8242V13.4726H19.9219Z" fill="black"/>
</g>
<defs>
<clipPath id="clip0_303_4555">
<rect width="24" height="24" fill="white"/>
</clipPath>
</defs>
</svg>
