<svg width="286" height="407" viewBox="0 0 286 407" fill="none" xmlns="http://www.w3.org/2000/svg">
<rect x="1.57812" y="0.5" width="283" height="405.236" rx="3.5" stroke="#BDBDBD" stroke-dasharray="7 7"/>
<path d="M154.669 168.904H144.669V178.904H141.336V168.904H131.336V165.57H141.336V155.57H144.669V165.57H154.669V168.904Z" fill="#BDBDBD"/>
<circle cx="143" cy="167.236" r="39.25" stroke="#DEE0E4" stroke-width="1.5"/>
<path d="M76.4248 250.263H78.4873C78.3799 251.251 78.097 252.135 77.6387 252.916C77.1803 253.697 76.5322 254.316 75.6943 254.774C74.8564 255.226 73.8109 255.451 72.5576 255.451C71.641 255.451 70.8066 255.279 70.0547 254.936C69.3099 254.592 68.6689 254.105 68.1318 253.475C67.5947 252.837 67.1794 252.075 66.8857 251.187C66.5993 250.291 66.4561 249.296 66.4561 248.2V246.643C66.4561 245.547 66.5993 244.555 66.8857 243.667C67.1794 242.772 67.5983 242.006 68.1426 241.368C68.694 240.731 69.3564 240.24 70.1299 239.896C70.9033 239.553 71.7734 239.381 72.7402 239.381C73.9219 239.381 74.9209 239.603 75.7373 240.047C76.5537 240.491 77.1875 241.107 77.6387 241.895C78.097 242.675 78.3799 243.581 78.4873 244.612H76.4248C76.3245 243.882 76.1383 243.255 75.8662 242.732C75.5941 242.202 75.2074 241.794 74.7061 241.508C74.2048 241.221 73.5495 241.078 72.7402 241.078C72.0456 241.078 71.4333 241.211 70.9033 241.476C70.3805 241.741 69.9401 242.117 69.582 242.604C69.2311 243.09 68.9661 243.674 68.7871 244.354C68.6081 245.035 68.5186 245.79 68.5186 246.621V248.2C68.5186 248.966 68.5973 249.686 68.7549 250.359C68.9196 251.033 69.1667 251.623 69.4961 252.132C69.8255 252.64 70.2445 253.041 70.7529 253.335C71.2614 253.621 71.863 253.765 72.5576 253.765C73.4385 253.765 74.1403 253.625 74.6631 253.346C75.1859 253.066 75.5798 252.665 75.8447 252.143C76.1169 251.62 76.3102 250.993 76.4248 250.263ZM82.999 245.439V255.236H81.0117V243.613H82.9453L82.999 245.439ZM86.6299 243.549L86.6191 245.396C86.4544 245.361 86.2969 245.339 86.1465 245.332C86.0033 245.318 85.8385 245.311 85.6523 245.311C85.194 245.311 84.7894 245.382 84.4385 245.525C84.0876 245.669 83.7904 245.869 83.5469 246.127C83.3034 246.385 83.11 246.693 82.9668 247.051C82.8307 247.402 82.7412 247.788 82.6982 248.211L82.1396 248.533C82.1396 247.831 82.2077 247.173 82.3438 246.557C82.487 245.941 82.7054 245.396 82.999 244.924C83.2926 244.444 83.665 244.072 84.1162 243.807C84.5745 243.535 85.1188 243.398 85.749 243.398C85.8923 243.398 86.057 243.416 86.2432 243.452C86.4294 243.481 86.5583 243.513 86.6299 243.549ZM93.0752 255.451C92.266 255.451 91.5319 255.315 90.873 255.043C90.2214 254.764 89.6592 254.373 89.1865 253.872C88.721 253.371 88.363 252.776 88.1123 252.089C87.8617 251.401 87.7363 250.649 87.7363 249.833V249.382C87.7363 248.437 87.876 247.595 88.1553 246.857C88.4346 246.113 88.8141 245.482 89.2939 244.967C89.7738 244.451 90.318 244.061 90.9268 243.796C91.5355 243.531 92.1657 243.398 92.8174 243.398C93.6481 243.398 94.3643 243.542 94.9658 243.828C95.5745 244.115 96.0723 244.516 96.459 245.031C96.8457 245.54 97.1322 246.141 97.3184 246.836C97.5046 247.523 97.5977 248.275 97.5977 249.092V249.983H88.918V248.361H95.6104V248.211C95.5817 247.695 95.4743 247.194 95.2881 246.707C95.109 246.22 94.8226 245.819 94.4287 245.504C94.0348 245.189 93.4977 245.031 92.8174 245.031C92.3662 245.031 91.9508 245.128 91.5713 245.321C91.1917 245.507 90.8659 245.787 90.5938 246.159C90.3216 246.532 90.1104 246.986 89.96 247.523C89.8096 248.061 89.7344 248.68 89.7344 249.382V249.833C89.7344 250.384 89.8096 250.904 89.96 251.391C90.1175 251.87 90.3431 252.293 90.6367 252.658C90.9375 253.023 91.2992 253.31 91.7217 253.518C92.1514 253.725 92.6383 253.829 93.1826 253.829C93.8844 253.829 94.4788 253.686 94.9658 253.399C95.4528 253.113 95.8789 252.73 96.2441 252.25L97.4473 253.206C97.1966 253.586 96.8779 253.947 96.4912 254.291C96.1045 254.635 95.6283 254.914 95.0625 255.129C94.5039 255.344 93.8415 255.451 93.0752 255.451ZM106.771 253.249V247.266C106.771 246.807 106.678 246.41 106.492 246.073C106.313 245.729 106.041 245.465 105.676 245.278C105.311 245.092 104.859 244.999 104.322 244.999C103.821 244.999 103.381 245.085 103.001 245.257C102.629 245.429 102.335 245.654 102.12 245.934C101.912 246.213 101.809 246.514 101.809 246.836H99.8213C99.8213 246.421 99.9287 246.009 100.144 245.601C100.358 245.192 100.666 244.824 101.067 244.494C101.476 244.158 101.963 243.893 102.528 243.699C103.101 243.499 103.739 243.398 104.44 243.398C105.285 243.398 106.03 243.542 106.675 243.828C107.326 244.115 107.835 244.548 108.2 245.128C108.573 245.701 108.759 246.421 108.759 247.287V252.701C108.759 253.088 108.791 253.5 108.855 253.937C108.927 254.373 109.031 254.749 109.167 255.064V255.236H107.094C106.993 255.007 106.915 254.703 106.857 254.323C106.8 253.937 106.771 253.578 106.771 253.249ZM107.115 248.189L107.137 249.586H105.128C104.562 249.586 104.057 249.632 103.613 249.726C103.169 249.812 102.797 249.944 102.496 250.123C102.195 250.302 101.966 250.528 101.809 250.8C101.651 251.065 101.572 251.376 101.572 251.734C101.572 252.1 101.655 252.433 101.819 252.733C101.984 253.034 102.231 253.274 102.561 253.453C102.897 253.625 103.309 253.711 103.796 253.711C104.405 253.711 104.942 253.582 105.407 253.324C105.873 253.066 106.242 252.751 106.514 252.379C106.793 252.007 106.943 251.645 106.965 251.294L107.813 252.25C107.763 252.551 107.627 252.884 107.405 253.249C107.183 253.614 106.886 253.965 106.514 254.302C106.148 254.631 105.712 254.907 105.203 255.129C104.702 255.344 104.136 255.451 103.506 255.451C102.718 255.451 102.027 255.297 101.433 254.989C100.845 254.681 100.387 254.27 100.058 253.754C99.7354 253.231 99.5742 252.647 99.5742 252.003C99.5742 251.38 99.696 250.832 99.9395 250.359C100.183 249.88 100.534 249.482 100.992 249.167C101.451 248.845 102.002 248.601 102.646 248.437C103.291 248.272 104.011 248.189 104.806 248.189H107.115ZM116.751 243.613V245.139H110.467V243.613H116.751ZM112.594 240.788H114.581V252.357C114.581 252.751 114.642 253.049 114.764 253.249C114.885 253.45 115.043 253.582 115.236 253.646C115.43 253.711 115.637 253.743 115.859 253.743C116.024 253.743 116.196 253.729 116.375 253.7C116.561 253.664 116.701 253.636 116.794 253.614L116.805 255.236C116.647 255.286 116.439 255.333 116.182 255.376C115.931 255.426 115.627 255.451 115.269 255.451C114.782 255.451 114.334 255.354 113.926 255.161C113.518 254.968 113.192 254.646 112.948 254.194C112.712 253.736 112.594 253.12 112.594 252.347V240.788ZM123.905 255.451C123.096 255.451 122.362 255.315 121.703 255.043C121.051 254.764 120.489 254.373 120.017 253.872C119.551 253.371 119.193 252.776 118.942 252.089C118.692 251.401 118.566 250.649 118.566 249.833V249.382C118.566 248.437 118.706 247.595 118.985 246.857C119.265 246.113 119.644 245.482 120.124 244.967C120.604 244.451 121.148 244.061 121.757 243.796C122.366 243.531 122.996 243.398 123.647 243.398C124.478 243.398 125.194 243.542 125.796 243.828C126.405 244.115 126.902 244.516 127.289 245.031C127.676 245.54 127.962 246.141 128.148 246.836C128.335 247.523 128.428 248.275 128.428 249.092V249.983H119.748V248.361H126.44V248.211C126.412 247.695 126.304 247.194 126.118 246.707C125.939 246.22 125.653 245.819 125.259 245.504C124.865 245.189 124.328 245.031 123.647 245.031C123.196 245.031 122.781 245.128 122.401 245.321C122.022 245.507 121.696 245.787 121.424 246.159C121.152 246.532 120.94 246.986 120.79 247.523C120.64 248.061 120.564 248.68 120.564 249.382V249.833C120.564 250.384 120.64 250.904 120.79 251.391C120.948 251.87 121.173 252.293 121.467 252.658C121.768 253.023 122.129 253.31 122.552 253.518C122.981 253.725 123.468 253.829 124.013 253.829C124.715 253.829 125.309 253.686 125.796 253.399C126.283 253.113 126.709 252.73 127.074 252.25L128.277 253.206C128.027 253.586 127.708 253.947 127.321 254.291C126.935 254.635 126.458 254.914 125.893 255.129C125.334 255.344 124.672 255.451 123.905 255.451ZM148.537 239.596V255.236H146.453L138.579 243.173V255.236H136.506V239.596H138.579L146.485 251.691V239.596H148.537ZM156.733 255.451C155.924 255.451 155.19 255.315 154.531 255.043C153.88 254.764 153.317 254.373 152.845 253.872C152.379 253.371 152.021 252.776 151.771 252.089C151.52 251.401 151.395 250.649 151.395 249.833V249.382C151.395 248.437 151.534 247.595 151.813 246.857C152.093 246.113 152.472 245.482 152.952 244.967C153.432 244.451 153.976 244.061 154.585 243.796C155.194 243.531 155.824 243.398 156.476 243.398C157.306 243.398 158.022 243.542 158.624 243.828C159.233 244.115 159.73 244.516 160.117 245.031C160.504 245.54 160.79 246.141 160.977 246.836C161.163 247.523 161.256 248.275 161.256 249.092V249.983H152.576V248.361H159.269V248.211C159.24 247.695 159.132 247.194 158.946 246.707C158.767 246.22 158.481 245.819 158.087 245.504C157.693 245.189 157.156 245.031 156.476 245.031C156.024 245.031 155.609 245.128 155.229 245.321C154.85 245.507 154.524 245.787 154.252 246.159C153.98 246.532 153.769 246.986 153.618 247.523C153.468 248.061 153.393 248.68 153.393 249.382V249.833C153.393 250.384 153.468 250.904 153.618 251.391C153.776 251.87 154.001 252.293 154.295 252.658C154.596 253.023 154.957 253.31 155.38 253.518C155.81 253.725 156.297 253.829 156.841 253.829C157.543 253.829 158.137 253.686 158.624 253.399C159.111 253.113 159.537 252.73 159.902 252.25L161.105 253.206C160.855 253.586 160.536 253.947 160.149 254.291C159.763 254.635 159.286 254.914 158.721 255.129C158.162 255.344 157.5 255.451 156.733 255.451ZM166.52 253.174L169.506 243.613H170.816L170.559 245.515L167.519 255.236H166.24L166.52 253.174ZM164.511 243.613L167.057 253.281L167.239 255.236H165.896L162.523 243.613H164.511ZM173.674 253.206L176.102 243.613H178.078L174.705 255.236H173.373L173.674 253.206ZM171.106 243.613L174.028 253.013L174.361 255.236H173.094L169.968 245.493L169.71 243.613H171.106ZM195.362 253.55V255.236H187.542V253.55H195.362ZM187.95 239.596V255.236H185.877V239.596H187.95ZM199.595 243.613V255.236H197.597V243.613H199.595ZM197.446 240.53C197.446 240.208 197.543 239.936 197.736 239.714C197.937 239.492 198.23 239.381 198.617 239.381C198.997 239.381 199.287 239.492 199.487 239.714C199.695 239.936 199.799 240.208 199.799 240.53C199.799 240.838 199.695 241.103 199.487 241.325C199.287 241.54 198.997 241.647 198.617 241.647C198.23 241.647 197.937 241.54 197.736 241.325C197.543 241.103 197.446 240.838 197.446 240.53ZM209.553 252.153C209.553 251.867 209.488 251.602 209.359 251.358C209.238 251.108 208.983 250.882 208.597 250.682C208.217 250.474 207.644 250.295 206.878 250.145C206.233 250.008 205.65 249.847 205.127 249.661C204.611 249.475 204.171 249.249 203.806 248.984C203.448 248.719 203.172 248.408 202.979 248.05C202.785 247.692 202.688 247.273 202.688 246.793C202.688 246.335 202.789 245.901 202.989 245.493C203.197 245.085 203.487 244.723 203.859 244.408C204.239 244.093 204.694 243.846 205.224 243.667C205.754 243.488 206.344 243.398 206.996 243.398C207.927 243.398 208.722 243.563 209.381 243.893C210.04 244.222 210.545 244.662 210.896 245.214C211.246 245.758 211.422 246.363 211.422 247.029H209.435C209.435 246.707 209.338 246.396 209.145 246.095C208.958 245.787 208.683 245.533 208.317 245.332C207.959 245.132 207.519 245.031 206.996 245.031C206.445 245.031 205.997 245.117 205.653 245.289C205.317 245.454 205.07 245.665 204.912 245.923C204.762 246.181 204.687 246.453 204.687 246.739C204.687 246.954 204.722 247.147 204.794 247.319C204.873 247.484 205.009 247.638 205.202 247.781C205.396 247.917 205.668 248.046 206.019 248.168C206.369 248.29 206.817 248.411 207.361 248.533C208.314 248.748 209.098 249.006 209.714 249.307C210.33 249.607 210.788 249.976 211.089 250.413C211.39 250.85 211.54 251.38 211.54 252.003C211.54 252.511 211.433 252.977 211.218 253.399C211.01 253.822 210.706 254.187 210.305 254.495C209.911 254.796 209.438 255.032 208.887 255.204C208.342 255.369 207.73 255.451 207.05 255.451C206.026 255.451 205.159 255.269 204.45 254.903C203.741 254.538 203.204 254.065 202.839 253.485C202.474 252.905 202.291 252.293 202.291 251.648H204.289C204.318 252.193 204.475 252.626 204.762 252.948C205.048 253.263 205.399 253.489 205.814 253.625C206.23 253.754 206.642 253.818 207.05 253.818C207.594 253.818 208.049 253.747 208.414 253.604C208.786 253.46 209.069 253.263 209.263 253.013C209.456 252.762 209.553 252.476 209.553 252.153ZM219.017 243.613V245.139H212.732V243.613H219.017ZM214.859 240.788H216.847V252.357C216.847 252.751 216.908 253.049 217.029 253.249C217.151 253.45 217.309 253.582 217.502 253.646C217.695 253.711 217.903 253.743 218.125 253.743C218.29 253.743 218.462 253.729 218.641 253.7C218.827 253.664 218.966 253.636 219.06 253.614L219.07 255.236C218.913 255.286 218.705 255.333 218.447 255.376C218.197 255.426 217.892 255.451 217.534 255.451C217.047 255.451 216.6 255.354 216.191 255.161C215.783 254.968 215.457 254.646 215.214 254.194C214.978 253.736 214.859 253.12 214.859 252.347V240.788Z" fill="#C4C4C4"/>
</svg>
