<svg width="83" height="83" viewBox="0 0 83 83" fill="none" xmlns="http://www.w3.org/2000/svg">
<rect width="83" height="83" rx="41.5" fill="#29B77B"/>
<path d="M52.502 35.1329H51.7401V30.6766C51.7401 27.8287 50.6087 25.0974 48.595 23.0836C46.5812 21.0698 43.8499 19.9385 41.002 19.9385C38.154 19.9385 35.4227 21.0698 33.409 23.0836C31.3952 25.0974 30.2638 27.8287 30.2638 30.6766V35.1329H29.502C27.977 35.1329 26.5144 35.7387 25.4361 36.817C24.3578 37.8953 23.752 39.3579 23.752 40.8829V57.3135C23.752 58.8385 24.3578 60.301 25.4361 61.3793C26.5144 62.4577 27.977 63.0635 29.502 63.0635H52.502C54.0269 63.0635 55.4895 62.4577 56.5678 61.3793C57.6461 60.301 58.252 58.8385 58.252 57.3135V40.8829C58.252 39.3579 57.6461 37.8953 56.5678 36.817C55.4895 35.7387 54.0269 35.1329 52.502 35.1329ZM33.1388 30.6766C33.1388 29.644 33.3422 28.6215 33.7374 27.6675C34.1325 26.7135 34.7117 25.8467 35.4419 25.1165C36.172 24.3864 37.0389 23.8072 37.9929 23.412C38.9469 23.0169 39.9694 22.8135 41.002 22.8135C42.0346 22.8135 43.057 23.0169 44.011 23.412C44.965 23.8072 45.8319 24.3864 46.562 25.1165C47.2922 25.8467 47.8714 26.7135 48.2665 27.6675C48.6617 28.6215 48.8651 29.644 48.8651 30.6766V35.1329H33.1388V30.6766ZM55.377 57.3135C55.377 58.076 55.0741 58.8072 54.5349 59.3464C53.9957 59.8856 53.2645 60.1885 52.502 60.1885H29.502C28.7395 60.1885 28.0082 59.8856 27.469 59.3464C26.9299 58.8072 26.627 58.076 26.627 57.3135V40.8829C26.627 40.1204 26.9299 39.3891 27.469 38.8499C28.0082 38.3108 28.7395 38.0079 29.502 38.0079H52.502C53.2645 38.0079 53.9957 38.3108 54.5349 38.8499C55.0741 39.3891 55.377 40.1204 55.377 40.8829V57.3135Z" fill="white"/>
<path d="M40.9997 44.27C40.442 44.2702 39.897 44.4368 39.4347 44.7487C38.9723 45.0605 38.6136 45.5034 38.4045 46.0204C38.1954 46.5374 38.1454 47.1051 38.261 47.6507C38.3766 48.1963 38.6525 48.695 39.0533 49.0828V52.4911C39.0533 52.8723 39.2048 53.238 39.4744 53.5075C39.744 53.7771 40.1096 53.9286 40.4908 53.9286H41.5086C41.8898 53.9286 42.2555 53.7771 42.5251 53.5075C42.7946 53.238 42.9461 52.8723 42.9461 52.4911V49.0828C43.3469 48.695 43.6228 48.1963 43.7384 47.6507C43.854 47.1051 43.8041 46.5374 43.595 46.0204C43.3859 45.5034 43.0271 45.0605 42.5648 44.7487C42.1024 44.4368 41.5574 44.2702 40.9997 44.27Z" fill="white"/>
</svg>
