<svg width="16" height="16" viewBox="0 0 16 16" fill="none" xmlns="http://www.w3.org/2000/svg">
<g clipPath="url(#clip0_1_1502)">
<path d="M10.6385 12.1867L8.50357 14.3157V1.6839L10.6385 3.81286C10.835 4.00882 11.1539 4.00882 11.3504 3.81286C11.5468 3.61692 11.5468 3.29899 11.3504 3.10305L8.38108 0.142767C8.27612 0.0383023 8.13715 -0.00618253 8.00018 0.000807361C7.86272 -0.00668758 7.72375 0.0377972 7.61878 0.142767L4.65002 3.10303C4.45357 3.29899 4.45357 3.6169 4.65002 3.81286C4.84648 4.0088 5.16539 4.0088 5.36184 3.81286L7.4968 1.6839V14.3157L5.36184 12.1867C5.16539 11.9908 4.84646 11.9908 4.65002 12.1867C4.45357 12.3827 4.45357 12.7006 4.65002 12.8966L7.61878 15.8573C7.72375 15.9618 7.86272 16.0063 7.99969 15.9993C8.13717 16.0063 8.27614 15.9618 8.3806 15.8573L11.3493 12.8966C11.5458 12.7006 11.5458 12.3827 11.3493 12.1867C11.1534 11.9908 10.835 11.9908 10.6385 12.1867Z" fill="#454545"/>
</g>
<defs>
<clipPath id="clip0_1_1502">
<rect width="16" height="16" fill="white"/>
</clipPath>
</defs>
</svg>
