<svg width="22" height="19" viewBox="0 0 22 19" fill="none" xmlns="http://www.w3.org/2000/svg">
<path d="M14.7731 9.97282L13.6501 8.84982C13.8001 8.02165 13.5638 7.27707 12.9413 6.61607C12.319 5.95524 11.5552 5.69982 10.6501 5.84982L9.52707 4.72682C9.75274 4.62549 9.98416 4.54949 10.2213 4.49882C10.4585 4.44815 10.7181 4.42282 11.0001 4.42282C12.1347 4.42282 13.0979 4.81865 13.8896 5.61032C14.6812 6.40199 15.0771 7.36515 15.0771 8.49982C15.0771 8.78182 15.0517 9.04465 15.0011 9.28832C14.9504 9.53182 14.8744 9.75999 14.7731 9.97282ZM17.9538 13.0843L16.8501 12.0498C17.4834 11.5665 18.0459 11.0373 18.5376 10.4623C19.0292 9.88732 19.4501 9.23315 19.8001 8.49982C18.9667 6.81649 17.7709 5.47899 16.2126 4.48732C14.6542 3.49565 12.9167 2.99982 11.0001 2.99982C10.5167 2.99982 10.0417 3.03315 9.57508 3.09982C9.10841 3.16649 8.65007 3.26649 8.20007 3.39982L7.03482 2.23457C7.66682 1.98324 8.31233 1.79799 8.97132 1.67882C9.63033 1.55949 10.3066 1.49982 11.0001 1.49982C13.3436 1.49982 15.457 2.14599 17.3403 3.43832C19.2237 4.73065 20.5974 6.41782 21.4616 8.49982C21.0911 9.39332 20.6126 10.2273 20.0261 11.0018C19.4394 11.7762 18.7487 12.4703 17.9538 13.0843ZM18.7616 18.8691L14.7156 14.8536C14.2027 15.0434 13.6344 15.1986 13.0106 15.3191C12.3869 15.4396 11.7167 15.4998 11.0001 15.4998C8.65007 15.4998 6.53666 14.8537 4.65982 13.5613C2.78282 12.269 1.40907 10.5818 0.538574 8.49982C0.907741 7.61649 1.38466 6.79249 1.96932 6.02782C2.55399 5.26299 3.19757 4.59982 3.90007 4.03832L1.13082 1.23832L2.18482 0.18457L19.8153 17.8151L18.7616 18.8691ZM4.95407 5.09207C4.42574 5.51257 3.91191 6.01807 3.41257 6.60857C2.91324 7.1989 2.50907 7.82932 2.20007 8.49982C3.03341 10.1832 4.22924 11.5207 5.78757 12.5123C7.34591 13.504 9.08341 13.9998 11.0001 13.9998C11.4552 13.9998 11.9085 13.9613 12.3598 13.8843C12.811 13.8075 13.1937 13.7281 13.5078 13.6461L12.2423 12.3498C12.0718 12.419 11.8744 12.4741 11.6501 12.5151C11.4257 12.5562 11.2091 12.5768 11.0001 12.5768C9.86541 12.5768 8.90224 12.181 8.11058 11.3893C7.31891 10.5977 6.92307 9.63449 6.92307 8.49982C6.92307 8.29732 6.94366 8.08549 6.98483 7.86432C7.02583 7.64315 7.08091 7.4409 7.15007 7.25757L4.95407 5.09207Z" fill="#757575"/>
</svg>
