<svg width="24" height="24" viewBox="0 0 24 24" fill="none" xmlns="http://www.w3.org/2000/svg">
<g clipPath="url(#clip0_303_4531)">
<path d="M15.6928 10.9215L10.3906 8.02036C10.0857 7.85355 9.7254 7.85978 9.42657 8.03684C9.12756 8.21408 8.94922 8.52719 8.94922 8.87472V14.6271C8.94922 14.973 9.12646 15.2856 9.42346 15.463C9.57855 15.5557 9.75049 15.6022 9.92279 15.6022C10.0806 15.6022 10.2388 15.5632 10.3844 15.4848L15.6867 12.6337C16.0015 12.4643 16.198 12.1371 16.1994 11.7795C16.2007 11.4219 16.0066 11.0932 15.6928 10.9215ZM10.3556 13.9035V9.60421L14.3184 11.7725L10.3556 13.9035Z" fill="#212121"/>
<path d="M23.8224 7.19658L23.8213 7.18559C23.801 6.99242 23.5987 5.27416 22.7633 4.4002C21.7978 3.37225 20.7032 3.24737 20.1768 3.1875C20.1332 3.18256 20.0933 3.17798 20.0576 3.17322L20.0157 3.16882C16.8428 2.93811 12.0512 2.90662 12.0032 2.90643L11.999 2.90625L11.9948 2.90643C11.9468 2.90662 7.15512 2.93811 3.95372 3.16882L3.91142 3.17322C3.87736 3.17779 3.83983 3.18201 3.799 3.18677C3.27861 3.24682 2.19573 3.37189 1.22747 4.43701C0.431883 5.30163 0.201903 6.98308 0.178283 7.17204L0.175536 7.19658C0.168395 7.27696 -0.000976562 9.19059 -0.000976562 11.1117V12.9076C-0.000976562 14.8287 0.168395 16.7424 0.175536 16.8229L0.176818 16.835C0.197143 17.0251 0.39929 18.7119 1.23077 19.5862C2.1386 20.5797 3.28649 20.7112 3.90392 20.7819C4.00151 20.793 4.08556 20.8025 4.14287 20.8126L4.19835 20.8203C6.03031 20.9946 11.7741 21.0805 12.0177 21.084L12.025 21.0842L12.0323 21.084C12.0803 21.0838 16.8718 21.0523 20.0446 20.8216L20.0865 20.8172C20.1266 20.8119 20.1717 20.8071 20.2211 20.802C20.7386 20.7471 21.8156 20.633 22.7705 19.5823C23.5661 18.7175 23.7962 17.0361 23.8197 16.8473L23.8224 16.8228C23.8296 16.7422 23.9991 14.8287 23.9991 12.9076V11.1117C23.9989 9.19059 23.8296 7.27714 23.8224 7.19658ZM22.5925 12.9076C22.5925 14.6857 22.4372 16.517 22.4226 16.6851C22.3629 17.1481 22.1203 18.212 21.7326 18.6333C21.135 19.2908 20.521 19.356 20.0728 19.4034C20.0186 19.4091 19.9684 19.4146 19.923 19.4203C16.8542 19.6422 12.2434 19.6763 12.031 19.6775C11.7928 19.6741 6.13303 19.5875 4.35692 19.4225C4.26591 19.4076 4.16759 19.3963 4.06395 19.3846C3.53825 19.3243 2.81865 19.2419 2.26531 18.6333L2.25231 18.6194C1.87145 18.2226 1.6358 17.2278 1.57592 16.6906C1.56475 16.5635 1.40545 14.7106 1.40545 12.9076V11.1117C1.40545 9.33561 1.56036 7.50639 1.57537 7.33482C1.6466 6.78935 1.89379 5.78997 2.26531 5.38604C2.88128 4.70855 3.53075 4.63348 3.96031 4.58386C4.00133 4.5791 4.0396 4.5747 4.07493 4.57012C7.18845 4.3471 11.8324 4.31396 11.999 4.31268C12.1656 4.31378 16.8079 4.3471 19.8937 4.57012C19.9316 4.57488 19.973 4.57964 20.0175 4.58477C20.4593 4.63513 21.1271 4.7113 21.74 5.36498L21.7456 5.37102C22.1265 5.76781 22.3622 6.78001 22.422 7.32805C22.4326 7.44798 22.5925 9.30485 22.5925 11.1117V12.9076Z" fill="#212121"/>
</g>
<defs>
<clipPath id="clip0_303_4531">
<rect width="24" height="23.9999" fill="white"/>
</clipPath>
</defs>
</svg>
