<svg width="59" height="103" viewBox="0 0 59 103" fill="none" xmlns="http://www.w3.org/2000/svg">
<path d="M11.7246 80.4121V86.4926L44.7334 69.1196V63.0388L11.7246 80.4121Z" fill="#212121"/>
<path d="M17.3711 88.2307V94.3114L42.1277 81.2813V75.2009L17.3711 88.2307Z" fill="#212121"/>
<path d="M22.1523 96.9192V103L38.6568 94.3131V88.2327L22.1523 96.9192Z" fill="#212121"/>
<path fillRule="evenodd" clipRule="evenodd" d="M10.4614 50.3621C9.69967 48.997 8.78688 47.8955 8.25195 47.3603L12.5516 43.0608C13.4645 43.9737 14.7233 45.5213 15.7714 47.399C16.806 49.2531 17.7855 51.6975 17.7855 54.3315V71.1381L11.7048 74.3325V54.3315C11.7048 53.1436 11.2365 51.751 10.4614 50.3621Z" fill="#212121"/>
<path fillRule="evenodd" clipRule="evenodd" d="M47.7167 50.3621C48.4784 48.997 49.391 47.8955 49.9261 47.3603L45.6263 43.0608C44.7136 43.9737 43.4548 45.5213 42.4067 47.399C41.3721 49.2531 40.3926 51.6975 40.3926 54.3315L40.3929 59.1309L46.4733 56.0687V54.3315C46.4733 53.1436 46.9416 51.751 47.7167 50.3621Z" fill="#212121"/>
<path fillRule="evenodd" clipRule="evenodd" d="M29.1001 6.14242C16.2889 6.14242 6.08062 16.156 6.08062 28.2933C6.08062 33.0947 7.66514 37.5391 10.3719 41.1755L5.49436 44.8061C2.04272 40.1694 0 34.4624 0 28.2933C0 12.605 13.1265 0.0620117 29.1001 0.0620117C45.0735 0.0620117 58.2 12.605 58.2 28.2933C58.2 34.4624 56.1573 40.1694 52.7058 44.8061L47.8281 41.1755C50.535 37.5391 52.1196 33.0947 52.1196 28.2933C52.1196 16.156 41.9114 6.14242 29.1001 6.14242Z" fill="#FFB000"/>
<path fillRule="evenodd" clipRule="evenodd" d="M43.8662 29.1626H14.332V35.243H25.6246V66.949L31.705 63.8212V35.243H43.8662V29.1626Z" fill="#FFB000"/>
</svg>
